<svg width="224" height="68" viewBox="0 0 224 68" fill="none" xmlns="http://www.w3.org/2000/svg">
<rect x="52" y="10" width="124" height="8" rx="4" fill="#2D2E35"/>
<rect x="182" y="10" width="14" height="8" rx="4" fill="#2D2E35"/>
<rect x="32" y="10" width="14" height="8" rx="4" fill="#2D2E35"/>
<rect x="38" y="24" width="124" height="8" rx="4" fill="#2D2E35"/>
<rect x="15" y="24" width="17" height="8" rx="4" fill="#2D2E35"/>
<rect x="168" y="24" width="24" height="8" rx="4" fill="#2D2E35"/>
<rect x="66" y="38" width="116" height="8" rx="4" fill="#2D2E35"/>
<rect x="20" y="38" width="40" height="8" rx="4" fill="#2D2E35"/>
<rect x="188" y="38" width="18" height="8" rx="4" fill="#2D2E35"/>
<rect x="52" y="52" width="110" height="8" rx="4" fill="#2D2E35"/>
<rect x="29" y="52" width="17" height="8" rx="4" fill="#2D2E35"/>
<rect x="168" y="52" width="31" height="8" rx="4" fill="#2D2E35"/>
<rect x="80" y="2" width="64" height="64" rx="32" fill="#18181C"/>
<path fill-rule="evenodd" clip-rule="evenodd" d="M109.714 40.8571C114.764 40.8571 118.857 36.7637 118.857 31.7143C118.857 26.6648 114.764 22.5714 109.714 22.5714C104.665 22.5714 100.571 26.6648 100.571 31.7143C100.571 36.7637 104.665 40.8571 109.714 40.8571ZM109.714 43.1428C116.026 43.1428 121.143 38.0261 121.143 31.7143C121.143 25.4025 116.026 20.2857 109.714 20.2857C103.402 20.2857 98.2856 25.4025 98.2856 31.7143C98.2856 38.0261 103.402 43.1428 109.714 43.1428Z" fill="#BDBFC6"/>
<path d="M117.257 38.4492C117.703 38.0029 118.427 38.0029 118.873 38.4492L125.895 45.4711C126.341 45.9175 126.341 46.6409 125.895 47.0873C125.449 47.5337 124.725 47.5337 124.279 47.0873L117.257 40.0654C116.811 39.6191 116.811 38.8955 117.257 38.4492Z" fill="#BDBFC6"/>
<path d="M104.001 31.7143C103.369 31.7143 102.847 31.1988 102.952 30.576C103.079 29.8203 103.333 29.0886 103.704 28.4123C104.26 27.4005 105.063 26.5455 106.037 25.9264C107.011 25.3074 108.126 24.9443 109.278 24.871C110.049 24.822 110.819 24.9034 111.557 25.1093C112.165 25.279 112.41 25.9703 112.142 26.5421C111.873 27.1138 111.191 27.3437 110.571 27.2253C110.195 27.1535 109.809 27.129 109.424 27.1535C108.656 27.2024 107.913 27.4444 107.264 27.8569C106.614 28.2695 106.079 28.8394 105.709 29.5137C105.523 29.8521 105.381 30.2114 105.287 30.5826C105.13 31.1945 104.632 31.7143 104.001 31.7143Z" fill="#BDBFC6"/>
<rect x="80" y="2" width="64" height="64" rx="32" stroke="#18181C" stroke-width="4"/>
<rect x="82" y="4" width="60" height="60" rx="30" stroke="#515258" stroke-width="2"/>
</svg>
