<svg width="317" height="174" viewBox="0 0 317 174" fill="none" xmlns="http://www.w3.org/2000/svg">
<path fill-rule="evenodd" clip-rule="evenodd" d="M121.452 18C121.381 18.7258 121.234 19.4074 121.025 20.0199L122.458 21.2941C122.665 21.4776 122.683 21.7936 122.5 22C122.317 22.2064 122.001 22.225 121.794 22.0415L120.613 20.9917C119.972 22.224 119.039 23 118 23C116.961 23 116.028 22.224 115.387 20.9917L114.206 22.0415C113.999 22.225 113.683 22.2064 113.5 22C113.317 21.7936 113.335 21.4776 113.542 21.2941L114.975 20.0199C114.766 19.4074 114.619 18.7258 114.548 18H113C112.724 18 112.5 17.7761 112.5 17.5C112.5 17.2239 112.724 17 113 17H114.5C114.5 16.2151 114.588 15.4653 114.748 14.7781L113.542 13.7059C113.335 13.5224 113.317 13.2064 113.5 13C113.683 12.7936 113.999 12.775 114.206 12.9585L117.336 15.7405C117.715 16.0773 118.285 16.0773 118.664 15.7405L121.794 12.9585C122.001 12.775 122.317 12.7936 122.5 13C122.683 13.2064 122.665 13.5224 122.458 13.7059L121.252 14.7781C121.412 15.4653 121.5 16.2151 121.5 17L123 17C123.276 17 123.5 17.2239 123.5 17.5C123.5 17.7761 123.276 18 123 18H121.452ZM117.675 15.0626L115.354 13.0731C115.995 11.8033 116.943 11 118 11C119.057 11 120.005 11.8033 120.646 13.0731L118.325 15.0626C118.138 15.223 117.862 15.223 117.675 15.0626Z" fill="#D9E0E7"/>
<path d="M90 76.5V65.5" stroke="#BDBFC6"/>
<path d="M90 74C90 74 89.75 71.75 92 72C94.25 72.25 94.5 69.5 94.5 69.5L94.5 68" stroke="#BDBFC6"/>
<circle cx="94.5" cy="67.5" r="1.5" fill="#BDBFC6"/>
<circle cx="90" cy="66.5" r="1.5" fill="#BDBFC6"/>
<circle cx="90" cy="75.5" r="1.5" fill="#BDBFC6"/>
<path fill-rule="evenodd" clip-rule="evenodd" d="M157.004 46.5C157.046 45.8343 157.438 45.2416 157.902 44.7525C158.583 44.0354 159 43.0665 159 42C159 39.7909 157.209 38 155 38C152.791 38 151 39.7909 151 42C151 43.0665 151.417 44.0354 152.098 44.7525C152.562 45.2416 152.954 45.8343 152.996 46.5H157.004ZM157 47.5H153V48C153 49.1046 153.895 50 155 50C156.105 50 157 49.1046 157 48V47.5ZM155 39.6C155 39.2686 154.729 38.994 154.404 39.0598C154.151 39.111 153.906 39.1947 153.673 39.3094C153.26 39.5129 152.9 39.8086 152.62 40.1737C152.34 40.5388 152.147 40.9634 152.058 41.4147C152.007 41.6691 151.99 41.9281 152.006 42.1853C152.026 42.516 152.362 42.7069 152.682 42.6212C153.002 42.5354 153.181 42.2019 153.205 41.8713C153.21 41.7968 153.22 41.7225 153.235 41.6488C153.288 41.378 153.404 41.1233 153.572 40.9042C153.74 40.6852 153.956 40.5077 154.204 40.3856C154.271 40.3524 154.34 40.3235 154.411 40.2991C154.724 40.1907 155 39.9314 155 39.6Z" fill="#BDBFC6"/>
<path d="M221.935 104.854V103.673C220.934 103.673 220.695 103.264 220.695 102.378V100.98C220.695 100.315 220.431 99.7528 219.28 99.5227V99.3607C220.431 99.1306 220.695 98.5639 220.695 97.8991V96.5014C220.695 95.6193 220.934 95.2102 221.935 95.2102V94.0255C220.231 94.0255 219.229 94.4559 219.229 96.3778V97.4644C219.229 98.3593 218.897 98.7258 217.929 98.7258V100.158C218.897 100.158 219.229 100.524 219.229 101.419V102.501C219.229 104.423 220.231 104.854 221.935 104.854Z" fill="#BDBFC6"/>
<path d="M224.064 94.0298V95.2102C225.065 95.2102 225.304 95.6193 225.304 96.5056V97.9034C225.304 98.5681 225.568 99.1306 226.719 99.3607V99.5227C225.568 99.7528 225.304 100.32 225.304 100.984V102.382C225.304 103.264 225.065 103.673 224.064 103.673V104.858C225.768 104.858 226.77 104.428 226.77 102.506V101.419C226.77 100.524 227.102 100.158 228.069 100.158V98.7258C227.102 98.7258 226.77 98.3593 226.77 97.4644V96.382C226.77 94.4602 225.768 94.0298 224.064 94.0298Z" fill="#BDBFC6"/>
<path d="M223.648 138.794C223.843 138.989 224.16 138.989 224.355 138.794L228.747 134.402C229.883 133.266 229.874 131.392 228.747 130.284C227.593 129.148 225.788 129.158 224.63 130.284L224.002 130.893L223.374 130.284C222.215 129.158 220.41 129.148 219.256 130.284C218.13 131.392 218.12 133.266 219.256 134.402L223.648 138.794Z" fill="#BDBFC6"/>
<path d="M211.112 61.8271V60.6035H209.684V60.0088C209.684 59.7764 209.713 59.5713 209.772 59.3936C209.836 59.2158 209.934 59.0654 210.066 58.9424C210.199 58.8148 210.369 58.7191 210.579 58.6553C210.793 58.5869 211.042 58.5505 211.324 58.5459C211.516 58.5459 211.689 58.5641 211.844 58.6006C212.003 58.637 212.145 58.6872 212.268 58.751L212.432 57.4727C212.204 57.3952 211.985 57.3314 211.775 57.2812C211.566 57.2266 211.347 57.1992 211.119 57.1992C210.645 57.1992 210.219 57.2607 209.841 57.3838C209.463 57.5068 209.141 57.6846 208.877 57.917C208.608 58.154 208.403 58.4479 208.262 58.7988C208.12 59.1497 208.05 59.5531 208.05 60.0088V60.6035H206.901V61.8271H208.05V68.1982C208.05 68.4717 208.018 68.7109 207.954 68.916C207.89 69.1211 207.792 69.2852 207.66 69.4082C207.574 69.4857 207.469 69.5472 207.346 69.5928C207.223 69.6383 207.084 69.6611 206.929 69.6611C206.824 69.6611 206.66 69.6406 206.437 69.5996C206.213 69.5632 206.049 69.5085 205.944 69.4355L205.842 70.7344C206.042 70.8301 206.243 70.8962 206.443 70.9326C206.644 70.9691 206.847 70.9873 207.052 70.9873C207.466 70.9873 207.836 70.9258 208.159 70.8027C208.487 70.6842 208.765 70.5065 208.993 70.2695C209.216 70.0326 209.387 69.7409 209.506 69.3945C209.624 69.0482 209.684 68.6494 209.684 68.1982V61.8271H211.112Z" fill="#BDBFC6"/>
<path d="M193.554 41.6209C194.19 41.6209 194.664 42.2064 194.532 42.8284L194.232 44.2432C194.15 44.633 194.447 45 194.845 45V45C195.141 45 195.397 44.7929 195.458 44.5033L195.902 42.4134C196 41.9513 196.408 41.6209 196.88 41.6209H197.763C198.075 41.6209 198.328 41.3681 198.328 41.0563V41.0563C198.328 40.7445 198.075 40.4918 197.763 40.4918H197.422C196.845 40.4918 196.415 39.9611 196.535 39.3974L196.753 38.3669C196.851 37.9047 197.259 37.5742 197.731 37.5742H198.427C198.744 37.5742 199 37.3177 199 37.0014V37.0014C199 36.685 198.744 36.4286 198.427 36.4286H198.179C197.656 36.4286 197.266 35.9465 197.376 35.4354L197.735 33.7577C197.819 33.3677 197.522 33 197.123 33V33C196.828 33 196.572 33.2063 196.51 33.4952L196.051 35.6381C195.952 36.0992 195.545 36.4286 195.073 36.4286H194.753C194.116 36.4286 193.642 35.8415 193.775 35.219L194.089 33.7577C194.172 33.3677 193.875 33 193.476 33V33C193.181 33 192.925 33.2063 192.863 33.4952L192.404 35.6381C192.305 36.0992 191.898 36.4286 191.426 36.4286H190.254C189.937 36.4286 189.681 36.685 189.681 37.0014V37.0014C189.681 37.3177 189.937 37.5742 190.254 37.5742H190.759C191.394 37.5742 191.869 38.1596 191.737 38.7815L191.543 39.6991C191.445 40.1612 191.037 40.4918 190.564 40.4918H189.565C189.253 40.4918 189 40.7445 189 41.0563V41.0563C189 41.3681 189.253 41.6209 189.565 41.6209H189.958C190.568 41.6209 191.023 42.1821 190.896 42.7782L190.585 44.2432C190.503 44.633 190.8 45 191.198 45V45C191.494 45 191.75 44.7929 191.811 44.5033L192.255 42.4134C192.353 41.9513 192.761 41.6209 193.233 41.6209H193.554ZM193.89 40.4918C193.254 40.4918 192.78 39.9064 192.912 39.2844L193.106 38.3669C193.204 37.9047 193.612 37.5742 194.084 37.5742H194.406C195.041 37.5742 195.516 38.1596 195.384 38.7815L195.189 39.6991C195.092 40.1612 194.684 40.4918 194.211 40.4918H193.89Z" fill="#BDBFC6"/>
<path fill-rule="evenodd" clip-rule="evenodd" d="M102.359 100.728C102.529 100.005 101.88 99.3564 101.157 99.526L100.815 99.6064C98.6127 100.123 96.7627 101.538 95.6773 103.46C95.6025 103.424 95.5192 103.407 95.4346 103.412L93.6094 103.508C93.486 103.514 93.3694 103.566 93.2821 103.653L91.6386 105.297C91.4642 105.471 91.6209 105.766 91.863 105.719L93.4319 105.415C93.595 105.383 93.7632 105.435 93.8807 105.552L94.6308 106.302L94.4952 106.771C94.3856 107.149 94.7362 107.5 95.1145 107.39L95.5831 107.255L96.3333 108.005C96.4508 108.122 96.5022 108.29 96.4706 108.453L96.1662 110.022C96.1192 110.264 96.414 110.421 96.5884 110.247L98.2319 108.603C98.3192 108.516 98.3711 108.399 98.3776 108.276L98.4737 106.451C98.4781 106.366 98.461 106.283 98.4251 106.208C100.347 105.123 101.762 103.273 102.279 101.07L102.359 100.728ZM100.253 103.046C99.8626 103.437 99.2295 103.437 98.8389 103.046C98.4484 102.656 98.4484 102.023 98.8389 101.632C99.2295 101.242 99.8626 101.242 100.253 101.632C100.644 102.023 100.644 102.656 100.253 103.046ZM92.1961 108.126L91.4143 110.471L93.7596 109.689C94.6313 109.399 94.8925 108.292 94.2427 107.643C93.593 106.993 92.4866 107.254 92.1961 108.126Z" fill="#BDBFC6"/>
<path fill-rule="evenodd" clip-rule="evenodd" d="M185.911 149.653L185.626 149.332L186.374 148.668L186.659 148.988C187.217 149.616 187.422 150.482 187.206 151.294L186.983 152.129L186.017 151.871L186.24 151.036C186.37 150.549 186.246 150.029 185.911 149.653ZM189.919 156.69C190.214 156.508 190.238 156.087 189.965 155.872L185.161 152.092C184.882 151.873 184.471 152.005 184.372 152.345L182.337 159.324C182.081 160.203 183.043 160.936 183.822 160.455L189.919 156.69ZM191.393 154.464C192.119 153.842 193.044 153.5 194 153.5V152.5C192.805 152.5 191.65 152.927 190.743 153.705L189.675 154.62L190.325 155.38L191.393 154.464ZM193 157.5C193 157.776 192.776 158 192.5 158C192.224 158 192 157.776 192 157.5C192 157.224 192.224 157 192.5 157C192.776 157 193 157.224 193 157.5ZM188.5 150C188.776 150 189 149.776 189 149.5C189 149.224 188.776 149 188.5 149C188.224 149 188 149.224 188 149.5C188 149.776 188.224 150 188.5 150ZM184.004 151.369C183.876 151.614 183.376 151.605 182.886 151.349C182.397 151.094 182.104 150.688 182.232 150.443C182.36 150.198 182.86 150.207 183.35 150.463C183.839 150.719 184.132 151.125 184.004 151.369ZM182.241 153.938C182.725 153.671 183.009 153.259 182.876 153.018C182.743 152.776 182.243 152.796 181.759 153.062C181.275 153.328 180.991 153.74 181.124 153.982C181.257 154.224 181.758 154.204 182.241 153.938ZM192 155.5C192 155.776 191.776 156 191.5 156C191.224 156 191 155.776 191 155.5C191 155.224 191.224 155 191.5 155C191.776 155 192 155.224 192 155.5ZM193 150.382V149H192V150.382C192 150.524 191.851 150.616 191.724 150.553L191.621 150.501C190.876 150.129 190 150.671 190 151.503V151.591C190 151.616 189.993 151.63 189.987 151.638C189.98 151.649 189.967 151.66 189.948 151.668C189.93 151.676 189.913 151.677 189.9 151.675C189.89 151.673 189.875 151.668 189.857 151.65C189.374 151.166 188.568 151.246 188.189 151.815L187.584 152.723L188.416 153.277L189.021 152.37C189.05 152.326 189.113 152.32 189.15 152.357C189.833 153.04 191 152.556 191 151.591V151.503C191 151.414 191.094 151.356 191.174 151.396L191.276 151.447C192.068 151.843 193 151.267 193 150.382Z" fill="#D1D5DC"/>
<g clip-path="url(#clip0_3133_103444)">
<path fill-rule="evenodd" clip-rule="evenodd" d="M94.4255 137.884C94.5728 138.031 94.5728 138.272 94.4255 138.419C94.2782 138.566 94.0357 138.566 93.8884 138.419C93.8181 138.348 93.7787 138.253 93.7787 138.153C93.7787 137.945 93.9502 137.775 94.1587 137.775C94.2586 137.775 94.3546 137.814 94.4257 137.884L94.4255 137.884ZM92.1011 136.674C92.3854 136.73 92.6635 136.815 92.9314 136.926C93.1184 137.004 93.2087 137.222 93.1314 137.409C93.0745 137.547 92.9395 137.637 92.7906 137.637C92.7422 137.637 92.6942 137.628 92.6494 137.609H92.6487C92.4286 137.518 92.2001 137.448 91.9665 137.401C91.9602 137.399 91.9541 137.398 91.9479 137.397C91.7201 137.352 91.4886 137.329 91.2564 137.328H91.2375C90.7109 137.328 90.2228 137.045 89.9595 136.589C89.9578 136.586 89.9561 136.583 89.9546 136.58C89.713 136.163 89.3924 135.797 89.0109 135.504C87.3946 134.261 85.0791 134.566 83.8383 136.186C83.7685 136.277 83.6601 136.331 83.5453 136.331C83.3429 136.331 83.1763 136.164 83.1763 135.961C83.1763 135.88 83.203 135.801 83.2524 135.736C83.2562 135.731 83.2601 135.727 83.2641 135.722C83.6163 135.266 84.0538 134.883 84.5521 134.595C86.6689 133.37 89.3759 134.097 90.599 136.218V136.219L90.6021 136.224C90.7315 136.445 90.9663 136.583 91.2216 136.588H91.238C91.528 136.588 91.8172 136.617 92.1017 136.674H92.1011ZM82.9388 141.401C82.9419 141.395 82.9455 141.389 82.949 141.383C83.0746 141.159 83.0742 140.885 82.948 140.661C82.9444 140.655 82.941 140.648 82.9376 140.642C82.3558 139.628 82.199 138.423 82.5017 137.293C82.5448 137.132 82.6917 137.02 82.8582 137.02C83.0607 137.02 83.2273 137.186 83.2273 137.389C83.2273 137.421 83.2231 137.453 83.2147 137.484C82.9625 138.426 83.0935 139.431 83.5789 140.276C83.5829 140.283 83.5869 140.29 83.5907 140.297C83.8448 140.747 83.8443 141.3 83.5895 141.75C83.5847 141.758 83.5798 141.767 83.5744 141.775C83.337 142.191 83.1828 142.649 83.1204 143.124C82.8545 145.145 84.2769 146.998 86.2978 147.264V147.265C86.4805 147.289 86.6186 147.447 86.6186 147.631C86.6186 147.647 86.6176 147.663 86.6155 147.679C86.589 147.88 86.4025 148.023 86.202 147.997H86.2027C85.6261 147.921 85.07 147.732 84.5664 147.441C82.45 146.22 81.7233 143.518 82.9388 141.401ZM83.5757 141.837C83.5852 141.829 83.594 141.82 83.6019 141.811L83.6029 141.81C83.5947 141.819 83.5856 141.829 83.5757 141.837ZM87.9242 147.919C87.7224 147.972 87.5118 147.852 87.4577 147.651C87.4035 147.451 87.5251 147.242 87.727 147.188C87.7578 147.18 87.7894 147.176 87.8211 147.176C88.0301 147.176 88.2021 147.347 88.2021 147.555C88.2021 147.723 88.0881 147.873 87.9243 147.919H87.9242ZM91.2679 145.432C91.0075 145.432 90.7656 145.569 90.6323 145.792C90.6307 145.795 90.6289 145.798 90.6271 145.801C90.4818 146.053 90.312 146.289 90.1203 146.507C90.1817 146.437 90.1819 146.438 90.1203 146.507C90.1165 146.512 90.1127 146.516 90.1087 146.52C89.92 146.733 89.7111 146.928 89.4851 147.101C89.3242 147.224 89.09 147.193 88.9664 147.033C88.8429 146.872 88.8736 146.638 89.0344 146.515C89.2266 146.368 89.4039 146.202 89.5637 146.02C89.5044 146.088 89.5043 146.087 89.5637 146.02C89.5683 146.015 89.5729 146.01 89.5773 146.005C89.7287 145.83 89.8635 145.642 89.9797 145.443C89.9819 145.438 89.9842 145.435 89.9865 145.43C90.2507 144.975 90.7398 144.693 91.2672 144.693C91.7531 144.693 92.2341 144.597 92.683 144.412C94.5667 143.633 95.4635 141.479 94.6899 139.597C94.6882 139.593 94.6866 139.59 94.6851 139.586C94.6674 139.542 94.6583 139.495 94.6583 139.448C94.6583 139.245 94.8253 139.078 95.0283 139.078C95.1761 139.078 95.3103 139.167 95.3684 139.303C95.5916 139.841 95.7064 140.417 95.7064 141C95.7064 143.448 93.7188 145.432 91.2671 145.432L91.2679 145.432ZM90.9093 138.104C91.0071 138.093 91.1051 138.087 91.2036 138.086C91.2137 138.086 91.2237 138.086 91.2338 138.086C92.8565 138.086 94.1918 139.416 94.1918 141.033C94.1918 142.65 92.8565 143.981 91.2338 143.981C91.1256 143.981 91.0175 143.975 90.91 143.963C90.3028 143.917 89.7261 144.249 89.4627 144.796C88.9917 145.865 87.9258 146.559 86.754 146.559C85.1312 146.559 83.7959 145.228 83.7959 143.611C83.7959 142.977 84.0009 142.36 84.3804 141.852C84.7151 141.351 84.7106 140.695 84.3691 140.199C84.3338 140.151 84.3 140.102 84.2676 140.052C83.9608 139.576 83.7976 139.023 83.7976 138.457C83.7976 136.84 85.1328 135.51 86.7554 135.51C87.9267 135.51 88.9922 136.203 89.4634 137.272C89.7267 137.818 90.3028 138.15 90.9096 138.104H90.9093ZM84.9143 144.757C85.3077 145.447 86.0369 145.873 86.8236 145.873C88.033 145.873 89.0283 144.866 89.0283 143.642C89.0283 142.419 88.033 141.412 86.8236 141.412C86.4366 141.412 86.0564 141.515 85.7212 141.711C84.674 142.323 84.3098 143.698 84.9143 144.757ZM89.3205 142.149C89.7138 142.839 90.4431 143.265 91.2298 143.265C92.4393 143.265 93.4345 142.258 93.4345 141.034C93.4345 139.811 92.4393 138.804 91.2298 138.804C90.8429 138.804 90.4627 138.907 90.1275 139.103C89.0803 139.715 88.716 141.09 89.3205 142.149ZM86.8258 140.657C88.0342 140.656 89.0283 139.65 89.0283 138.426C89.0283 137.203 88.0337 136.196 86.8252 136.196C85.6166 136.196 84.622 137.203 84.622 138.426C84.622 138.427 84.622 138.427 84.622 138.427C84.6223 139.65 85.6168 140.657 86.8253 140.657C86.8255 140.657 86.8256 140.657 86.8258 140.657Z" fill="#BDBFC6"/>
</g>
<path d="M135.266 157.852L138.209 154.909L135.266 152.006L132.323 154.909L135.266 157.852ZM139.044 161.591L141.948 158.688L139.044 155.744L136.101 158.688L139.044 161.591ZM139.044 154.074L141.948 151.17L139.044 148.227L136.101 151.17L139.044 154.074ZM142.783 157.852L145.686 154.909L142.783 152.006L139.879 154.909L142.783 157.852ZM135.266 156.351L133.839 154.909L135.266 153.487L136.698 154.909L135.266 156.351ZM142.783 156.351L141.351 154.909L142.783 153.487L144.205 154.909L142.783 156.351ZM139.044 152.572L137.617 151.17L139.044 149.729L140.441 151.17L139.044 152.572ZM139.044 160.09L137.617 158.688L139.044 157.266L140.441 158.688L139.044 160.09Z" fill="#D1D5DC"/>
<path d="M153.444 4.49805V3.66016H152.202L152.196 3.08008C152.196 2.85352 152.225 2.65234 152.284 2.47656C152.343 2.30078 152.434 2.1543 152.559 2.03711C152.68 1.91602 152.837 1.82617 153.028 1.76758C153.219 1.70508 153.442 1.67188 153.696 1.66797C153.852 1.66797 153.999 1.68359 154.135 1.71484C154.276 1.74609 154.397 1.78711 154.499 1.83789L154.634 0.976562C154.45 0.910156 154.27 0.855469 154.094 0.8125C153.923 0.769531 153.745 0.748047 153.561 0.748047C153.186 0.748047 152.848 0.798828 152.548 0.900391C152.247 1.00195 151.991 1.15039 151.78 1.3457C151.565 1.54492 151.401 1.79102 151.288 2.08398C151.175 2.37305 151.118 2.70508 151.118 3.08008V3.66016H150.081V4.49805H151.118V10.3047C151.114 10.5586 151.079 10.7812 151.012 10.9727C150.95 11.1641 150.856 11.3184 150.731 11.4355C150.649 11.5098 150.552 11.5664 150.438 11.6055C150.329 11.6484 150.208 11.6699 150.075 11.6699C149.989 11.6699 149.852 11.6543 149.665 11.623C149.481 11.5918 149.333 11.5449 149.219 11.4824L149.137 12.3496C149.29 12.4277 149.444 12.4824 149.6 12.5137C149.757 12.5449 149.915 12.5605 150.075 12.5605C150.407 12.5605 150.704 12.5098 150.966 12.4082C151.231 12.3105 151.456 12.166 151.639 11.9746C151.819 11.7871 151.958 11.5527 152.055 11.2715C152.153 10.9902 152.202 10.668 152.202 10.3047V4.49805H153.444Z" fill="#D9E0E7"/>
<path d="M155.521 8.46594L157.623 6.36367L155.521 4.28981L153.418 6.36367L155.521 8.46594ZM158.22 11.1364L160.293 9.06253L158.22 6.96026L156.117 9.06253L158.22 11.1364ZM158.22 5.76708L160.293 3.69322L158.22 1.59094L156.117 3.69322L158.22 5.76708ZM160.89 8.46594L162.964 6.36367L160.89 4.28981L158.816 6.36367L160.89 8.46594ZM155.521 7.3935L154.502 6.36367L155.521 5.34804L156.543 6.36367L155.521 7.3935ZM160.89 7.3935L159.867 6.36367L160.89 5.34804L161.906 6.36367L160.89 7.3935ZM158.22 4.69464L157.2 3.69322L158.22 2.66339L159.217 3.69322L158.22 4.69464ZM158.22 10.064L157.2 9.06253L158.22 8.04691L159.217 9.06253L158.22 10.064Z" fill="#D9E0E7"/>
<path fill-rule="evenodd" clip-rule="evenodd" d="M22.0607 89.0607L22.5556 89.5556H23.3338H24.8338V91.0556V91.8338L25.4393 92.4393L26.5 93.5L25.4393 94.5607L24.8338 95.1662V95.8338V97.3338H23.5385V101.538L21 99.6346L18.4615 101.538V97.3338H17.0556V95.8338V95.0556L16.5607 94.5607L15.5 93.5L16.5607 92.4393L17.0556 91.9444V91.0556V89.5556H18.5556H19.4444L19.9393 89.0607L21 88L22.0607 89.0607ZM22.5556 91.0556H23.3338V91.8338V92.4551L23.7732 92.8945L24.3787 93.5L23.7732 94.1055L23.3338 94.5449V95.1662V95.8338H22.6662H22.0449L21.6055 96.2731L21 96.8787L20.3945 96.2731L19.9551 95.8338H19.3338H18.5556V95.0556V94.4343L18.1163 93.995L17.6213 93.5L18.1163 93.005L18.5556 92.5657V91.9444V91.0556H19.4444H20.0657L20.505 90.6163L21 90.1213L21.495 90.6163L21.9343 91.0556H22.5556Z" fill="#D9E0E7"/>
<path d="M48.4714 156.982C48.8619 156.592 49.495 156.592 49.8856 156.982L50.1678 157.265C50.5583 157.655 50.5583 158.288 50.1678 158.679L48.3303 160.516L46.6338 158.82L48.4714 156.982Z" fill="#D9E0E7"/>
<path d="M41.1911 155.781C41.3864 155.586 41.703 155.586 41.8982 155.781L50.9455 164.828C51.1408 165.023 51.1408 165.34 50.9455 165.535L49.108 167.373C48.9127 167.568 48.5962 167.568 48.4009 167.373L47.4821 166.454L49.1786 164.758L48.3304 163.909L46.6339 165.606L45.3616 164.333L47.058 162.637L46.2098 161.789L44.5134 163.485L43.2411 162.213L44.9375 160.517L44.0893 159.668L42.3929 161.365L41.1206 160.092L42.817 158.396L41.9688 157.548L40.2724 159.244L39.3536 158.325C39.1583 158.13 39.1583 157.814 39.3536 157.618L41.1911 155.781Z" fill="#D9E0E7"/>
<path d="M39.8482 167.302L43.241 165.606L44.0892 164.757L42.3928 163.061L41.5446 163.909L39.8482 167.302Z" fill="#D9E0E7"/>
<path d="M274.997 162.759L271.776 165.085L273.046 161.301L269.815 158.966H273.77L274.997 155.182L276.225 158.966H280.179L276.949 161.301L278.219 165.085L274.997 162.759Z" fill="#D9E0E7"/>
<path fill-rule="evenodd" clip-rule="evenodd" d="M10.5119 125.892C10.6165 125.421 11.2611 125.356 11.4569 125.797L13.2538 129.84C13.366 130.092 13.2524 130.388 13 130.5V130.5C12.7477 130.612 12.4522 130.499 12.34 130.246L11.4671 128.282C11.3692 128.062 11.0469 128.094 10.9946 128.329L9.4881 135.109C9.37676 135.61 8.67306 135.638 8.52212 135.147L7.11102 130.561C7.04306 130.34 6.73749 130.322 6.64363 130.533L5.45692 133.203C5.29687 133.563 4.80257 133.605 4.58398 133.277L3.00001 130.901L1.69338 132.861C1.54021 133.091 1.22977 133.153 1.00001 133V133C0.770245 132.847 0.708158 132.536 0.861335 132.307L2.58398 129.723C2.7819 129.426 3.21812 129.426 3.41603 129.723L4.66011 131.589C4.7694 131.753 5.01655 131.732 5.09658 131.552L6.5431 128.297C6.73082 127.875 7.34197 127.911 7.4779 128.353L8.64403 132.143C8.7195 132.388 9.07135 132.374 9.12702 132.124L10.5119 125.892Z" fill="#D9E0E7"/>
<path d="M306.5 137.5V126.5" stroke="#D9E0E7"/>
<circle cx="306.5" cy="127.5" r="1.5" fill="#D9E0E7"/>
<circle cx="306.5" cy="136.5" r="1.5" fill="#D9E0E7"/>
<path d="M313.5 137.5V132L313.5 128.5C313.5 127.948 313.052 127.5 312.5 127.5H310.5" stroke="#D9E0E7"/>
<circle cx="313.5" cy="136.5" r="1.5" fill="#D9E0E7"/>
<path d="M312 130V125L309 127.5L312 130Z" fill="#D9E0E7"/>
<path fill-rule="evenodd" clip-rule="evenodd" d="M224 26C223.448 26 223 26.4477 223 27V35.5C223 36.0523 223.448 36.5 224 36.5H234C234.552 36.5 235 36.0523 235 35.5V28.5C235 27.9477 234.552 27.5 234 27.5H229.833C229.617 27.5 229.406 27.4298 229.233 27.3L227.767 26.2C227.594 26.0702 227.383 26 227.167 26H226.5H224ZM224.5 28.5C224.224 28.5 224 28.7239 224 29V35C224 35.2761 224.224 35.5 224.5 35.5H233.5C233.776 35.5 234 35.2761 234 35V29C234 28.7239 233.776 28.5 233.5 28.5H224.5Z" fill="#D9E0E7"/>
<path d="M184.472 9.74146C184.472 9.48257 184.262 9.27271 184.003 9.27271V9.27271C183.744 9.27271 183.534 9.48257 183.534 9.74146V15.6748C183.534 15.8976 183.265 16.0091 183.107 15.8516L181.16 13.9048C180.98 13.7239 180.686 13.7249 180.506 13.907V13.907C180.328 14.0873 180.329 14.3776 180.508 14.5568L183.65 17.698C183.845 17.8931 184.161 17.8932 184.356 17.6983L187.497 14.5649C187.68 14.382 187.679 14.0847 187.495 13.9028V13.9028C187.312 13.7224 187.018 13.7236 186.837 13.9054L184.899 15.85C184.741 16.0079 184.472 15.8964 184.472 15.6735V9.74146Z" fill="#D9E0E7"/>
<rect x="180" y="19" width="8" height="1" rx="0.5" fill="#D9E0E7"/>
<path fill-rule="evenodd" clip-rule="evenodd" d="M257.086 86.4324C257.521 86.0748 257.834 85.573 257.95 85H260.5C260.776 85 261 84.7761 261 84.5C261 84.2239 260.776 84 260.5 84H257.95C257.718 82.8589 256.709 82 255.5 82C254.119 82 253 83.1193 253 84.5C253 85.8807 254.119 87 255.5 87C255.737 87 255.967 86.967 256.184 86.9053L258.11 89.3123C258.282 89.528 258.597 89.5629 258.812 89.3904C259.028 89.2179 259.063 88.9033 258.89 88.6877L257.086 86.4324ZM263.5 92C263.5 93.3807 262.381 94.5 261 94.5C259.619 94.5 258.5 93.3807 258.5 92C258.5 90.6193 259.619 89.5 261 89.5C262.381 89.5 263.5 90.6193 263.5 92ZM264.5 87C265.881 87 267 85.8807 267 84.5C267 83.1193 265.881 82 264.5 82C263.119 82 262 83.1193 262 84.5C262 85.8807 263.119 87 264.5 87Z" fill="#D9E0E7"/>
<path d="M112.444 44.498V43.6602H111.202L111.196 43.0801C111.196 42.8535 111.225 42.6523 111.284 42.4766C111.343 42.3008 111.434 42.1543 111.559 42.0371C111.68 41.916 111.837 41.8262 112.028 41.7676C112.219 41.7051 112.442 41.6719 112.696 41.668C112.852 41.668 112.999 41.6836 113.135 41.7148C113.276 41.7461 113.397 41.7871 113.499 41.8379L113.634 40.9766C113.45 40.9102 113.27 40.8555 113.094 40.8125C112.923 40.7695 112.745 40.748 112.561 40.748C112.186 40.748 111.848 40.7988 111.548 40.9004C111.247 41.002 110.991 41.1504 110.78 41.3457C110.565 41.5449 110.401 41.791 110.288 42.084C110.175 42.373 110.118 42.7051 110.118 43.0801V43.6602H109.081V44.498H110.118V50.3047C110.114 50.5586 110.079 50.7812 110.012 50.9727C109.95 51.1641 109.856 51.3184 109.731 51.4355C109.649 51.5098 109.552 51.5664 109.438 51.6055C109.329 51.6484 109.208 51.6699 109.075 51.6699C108.989 51.6699 108.852 51.6543 108.665 51.623C108.481 51.5918 108.333 51.5449 108.219 51.4824L108.137 52.3496C108.29 52.4277 108.444 52.4824 108.6 52.5137C108.757 52.5449 108.915 52.5605 109.075 52.5605C109.407 52.5605 109.704 52.5098 109.966 52.4082C110.231 52.3105 110.456 52.166 110.639 51.9746C110.819 51.7871 110.958 51.5527 111.055 51.2715C111.153 50.9902 111.202 50.668 111.202 50.3047V44.498H112.444Z" fill="#BDBFC6"/>
<path d="M117.088 49.2642V48.358C116.415 48.358 116.278 48.0995 116.278 47.5512V46.7216C116.278 46.2841 116.091 45.8921 115.267 45.7245V45.6108C116.091 45.4432 116.278 45.0512 116.278 44.6165V43.787C116.278 43.2358 116.415 42.9773 117.088 42.9773V42.0739C115.94 42.0739 115.119 42.2642 115.119 43.6648V44.2926C115.119 44.875 114.9 45.1222 114.247 45.1222V46.2131C114.9 46.2131 115.119 46.4603 115.119 47.0426V47.6733C115.119 49.0739 115.94 49.2642 117.088 49.2642Z" fill="#BDBFC6"/>
<path d="M118.384 42.071V42.9773C119.057 42.9773 119.193 43.2358 119.193 43.7841V44.6137C119.193 45.0512 119.381 45.4432 120.205 45.6108V45.7245C119.381 45.8921 119.193 46.2841 119.193 46.7188V47.5483C119.193 48.0995 119.057 48.358 118.384 48.358V49.2614C119.532 49.2614 120.353 49.071 120.353 47.6705V47.0426C120.353 46.4603 120.571 46.2131 121.225 46.2131V45.1222C120.571 45.1222 120.353 44.875 120.353 44.2926V43.662C120.353 42.2614 119.532 42.071 118.384 42.071Z" fill="#BDBFC6"/>
<path fill-rule="evenodd" clip-rule="evenodd" d="M51 77.6707C49.8348 78.0825 49 79.1938 49 80.5V81H51V77.6707ZM52 81V77.5H58V81H56.5V80H53.5V81H52ZM51 82H49V86C49 86.5523 49.4477 87 50 87H51V82ZM52 87H58V82H56.5V83.5H53.5V82H52V87ZM59 82V87H60C60.5523 87 61 86.5523 61 86V82H59ZM59 81H61V80.5C61 79.1938 60.1652 78.0825 59 77.6707V81ZM54.5 81C54.5 80.7239 54.7239 80.5 55 80.5C55.2761 80.5 55.5 80.7239 55.5 81V82.5C55.5 82.7761 55.2761 83 55 83C54.7239 83 54.5 82.7761 54.5 82.5V81Z" fill="#D1D5DC"/>
<path fill-rule="evenodd" clip-rule="evenodd" d="M51.5 121.5H55.8421C56.1182 121.5 56.3421 121.724 56.3421 122V124.5V124.5C56.3421 124.776 56.566 125 56.8421 125V125C57.1182 125 57.3421 124.776 57.3421 124.5V122C57.3421 121.172 56.6705 120.5 55.8421 120.5H50.9142C50.5164 120.5 50.1349 120.658 49.8536 120.939L47.9393 122.854C47.658 123.135 47.5 123.516 47.5 123.914V132C47.5 132.828 48.1716 133.5 49 133.5H50.9211C51.1972 133.5 51.4211 133.276 51.4211 133V133C51.4211 132.724 51.1972 132.5 50.9211 132.5H49C48.7239 132.5 48.5 132.276 48.5 132V124.5H50C50.8284 124.5 51.5 123.828 51.5 123V121.5ZM48.7071 123.5H50C50.2761 123.5 50.5 123.276 50.5 123V121.707L48.7071 123.5Z" fill="#D1D5DC"/>
<path d="M52.8677 133.539V130.87H56.0696V133.539L54.4686 132.338L52.8677 133.539Z" fill="#D1D5DC"/>
<path fill-rule="evenodd" clip-rule="evenodd" d="M55.4499 125.981L54.4687 125L53.4876 125.981H51.9811V127.488L51 128.469L51.9811 129.45V130.887H53.4179L54.4687 131.937L55.5196 130.887H56.8867V129.52L57.9375 128.469L56.8867 127.418V125.981H55.4499ZM55.9406 126.927H55.058L54.4687 126.338L53.8795 126.927H52.9271V127.879L52.3379 128.469L52.9271 129.058V129.941H53.8098L54.4687 130.6L55.1277 129.941H55.9406V129.128L56.5996 128.469L55.9406 127.81V126.927Z" fill="#D1D5DC"/>
<path d="M255 129.309C255 129.12 255.107 128.946 255.276 128.862L259 127V137L255.724 138.638C255.391 138.804 255 138.563 255 138.191V129.309Z" fill="#D1D5DC"/>
<path d="M260 127L264 129V139L260 137V127Z" fill="#D1D5DC"/>
<path d="M265 129L268.276 127.362C268.609 127.196 269 127.437 269 127.809V136.691C269 136.88 268.893 137.054 268.724 137.138L265 139V129Z" fill="#D1D5DC"/>
<path fill-rule="evenodd" clip-rule="evenodd" d="M249.312 60.2185C249.448 60.8591 249.623 61.4172 249.828 61.8618C249.155 61.7003 248.536 61.4029 248 61.0004L248 61C248 61 248 60.9974 248.001 60.9946C248.001 60.9916 248.003 60.9854 248.007 60.9757C248.015 60.956 248.034 60.9189 248.078 60.8674C248.169 60.7595 248.34 60.6195 248.619 60.4802C248.816 60.3814 249.049 60.2924 249.312 60.2185ZM250.295 60.0355C250.365 60.362 250.446 60.6607 250.534 60.9264C250.693 61.4031 250.861 61.7206 251 61.9006C251.139 61.7206 251.307 61.4031 251.466 60.9264C251.554 60.6607 251.635 60.362 251.705 60.0355C251.48 60.0125 251.244 60 251 60C250.756 60 250.52 60.0125 250.295 60.0355ZM251.873 59.0477C251.592 59.0165 251.3 59 251 59C250.7 59 250.408 59.0165 250.127 59.0477C250.065 58.5665 250.023 58.047 250.007 57.5H251.993C251.977 58.047 251.935 58.5665 251.873 59.0477ZM251.993 56.5H250.007C250.023 55.953 250.065 55.4335 250.127 54.9523C250.408 54.9835 250.7 55 251 55C251.3 55 251.592 54.9835 251.873 54.9523C251.935 55.4335 251.977 55.953 251.993 56.5ZM252.993 57.5C252.976 58.1061 252.93 58.6867 252.858 59.2283C253.727 59.4566 254.407 59.8401 254.752 60.3051C255.425 59.5413 255.869 58.5703 255.975 57.5H252.993ZM255.975 56.5C255.869 55.4297 255.425 54.4587 254.752 53.6949C254.407 54.1599 253.727 54.5434 252.858 54.7717C252.93 55.3133 252.976 55.8939 252.993 56.5H255.975ZM249.007 56.5C249.024 55.8939 249.07 55.3133 249.142 54.7717C248.273 54.5434 247.593 54.1599 247.248 53.6949C246.575 54.4587 246.131 55.4297 246.025 56.5H249.007ZM246.025 57.5C246.131 58.5703 246.575 59.5413 247.248 60.3051C247.593 59.8401 248.273 59.4566 249.142 59.2283C249.07 58.6867 249.024 58.1061 249.007 57.5H246.025ZM250.534 53.0736C250.446 53.3393 250.365 53.638 250.295 53.9645C250.52 53.9875 250.756 54 251 54C251.244 54 251.48 53.9875 251.705 53.9645C251.635 53.638 251.554 53.3393 251.466 53.0736C251.307 52.5969 251.139 52.2794 251 52.0994C250.861 52.2794 250.693 52.5969 250.534 53.0736ZM249.828 52.1382C249.155 52.2997 248.536 52.5971 248 52.9996L248 53C248 53 248 53.0026 248.001 53.0054C248.001 53.0084 248.003 53.0146 248.007 53.0243C248.015 53.044 248.034 53.0811 248.078 53.1326C248.169 53.2405 248.34 53.3805 248.619 53.5198C248.816 53.6186 249.049 53.7076 249.312 53.7815C249.448 53.1409 249.623 52.5828 249.828 52.1382ZM254 53L254 52.9996C253.464 52.5971 252.845 52.2997 252.172 52.1382C252.377 52.5828 252.552 53.1409 252.688 53.7815C252.951 53.7076 253.184 53.6186 253.381 53.5198C253.66 53.3805 253.831 53.2405 253.922 53.1326C253.966 53.0811 253.985 53.044 253.993 53.0243C253.997 53.0146 253.999 53.0084 253.999 53.0054C254 53.0026 254 53 254 53ZM252.688 60.2185C252.552 60.8591 252.377 61.4172 252.172 61.8618C252.845 61.7003 253.464 61.4029 254 61.0004L254 61C254 61 254 60.9974 253.999 60.9946C253.999 60.9916 253.997 60.9854 253.993 60.9757C253.985 60.956 253.966 60.9189 253.922 60.8674C253.831 60.7595 253.66 60.6195 253.381 60.4802C253.184 60.3814 252.951 60.2924 252.688 60.2185ZM257 57C257 53.6863 254.314 51 251 51C247.686 51 245 53.6863 245 57C245 60.3137 247.686 63 251 63C254.314 63 257 60.3137 257 57Z" fill="#D1D5DC"/>
<path fill-rule="evenodd" clip-rule="evenodd" d="M240 154.5C240 154.224 240.224 154 240.5 154H241.5C241.776 154 242 154.224 242 154.5V155.612C242.502 155.725 242.973 155.924 243.396 156.19L244.182 155.404C244.377 155.209 244.694 155.209 244.889 155.404L245.596 156.111C245.791 156.306 245.791 156.623 245.596 156.818L244.81 157.604C245.076 158.027 245.275 158.498 245.388 159H246.5C246.776 159 247 159.224 247 159.5V160.5C247 160.776 246.776 161 246.5 161H245.388C245.275 161.502 245.076 161.973 244.81 162.396L245.596 163.182C245.791 163.377 245.791 163.694 245.596 163.889L244.889 164.596C244.694 164.791 244.377 164.791 244.182 164.596L243.396 163.81C242.973 164.076 242.502 164.275 242 164.388V165.5C242 165.776 241.776 166 241.5 166H240.5C240.224 166 240 165.776 240 165.5V164.388C239.498 164.275 239.027 164.076 238.604 163.81L237.818 164.596C237.623 164.791 237.306 164.791 237.111 164.596L236.404 163.889C236.209 163.694 236.209 163.377 236.404 163.182L237.19 162.396C236.924 161.973 236.725 161.502 236.612 161H235.5C235.224 161 235 160.776 235 160.5V159.5C235 159.224 235.224 159 235.5 159H236.612C236.725 158.498 236.924 158.027 237.19 157.604L236.404 156.818C236.209 156.623 236.209 156.306 236.404 156.111L237.111 155.404C237.306 155.209 237.623 155.209 237.818 155.404L238.604 156.19C239.027 155.924 239.498 155.725 240 155.612V154.5ZM241 162C242.105 162 243 161.105 243 160C243 158.895 242.105 158 241 158C239.895 158 239 158.895 239 160C239 161.105 239.895 162 241 162Z" fill="#D1D5DC"/>
<path d="M60 37H62C62.5523 37 63 36.5523 63 36V34M68.8421 35V45C68.8421 45.5523 68.3944 46 67.8421 46H61C60.4477 46 60 45.5523 60 45V36.9142C60 36.649 60.1054 36.3946 60.2929 36.2071L62.2071 34.2929C62.3946 34.1054 62.649 34 62.9142 34H67.8421C68.3944 34 68.8421 34.4477 68.8421 35Z" stroke="#D9E0E7"/>
<path fill-rule="evenodd" clip-rule="evenodd" d="M89.8351 163.92L94.1652 161.42C94.6435 161.144 95.2551 161.308 95.5312 161.786L96.2812 163.085C96.4193 163.324 96.7251 163.406 96.9642 163.268C97.2034 163.13 97.2853 162.824 97.1472 162.585L96.3972 161.286C95.8449 160.329 94.6218 160.002 93.6652 160.554L89.3351 163.054C88.3785 163.606 88.0507 164.829 88.603 165.786L92.603 172.714C93.1553 173.671 94.3785 173.999 95.3351 173.446L99.6652 170.946C100.622 170.394 100.95 169.171 100.397 168.214L99.6472 166.915C99.5092 166.676 99.2034 166.594 98.9642 166.732C98.7251 166.87 98.6431 167.176 98.7812 167.415L99.5312 168.714C99.8073 169.192 99.6435 169.804 99.1652 170.08L94.8351 172.58C94.3568 172.856 93.7452 172.692 93.469 172.214L89.469 165.286C89.1929 164.808 89.3568 164.196 89.8351 163.92ZM100.366 160.5C99.8878 160.224 99.2763 160.388 99.0001 160.866L98.5001 161.732L100.232 162.732L100.732 161.866C101.008 161.388 100.844 160.776 100.366 160.5ZM99.9822 163.165L98.2501 162.165L97.7501 163.031L99.4822 164.031L99.9822 163.165ZM97.5001 163.464L99.2322 164.464L97.2322 167.928L96.2322 169.66L94.8661 170.026L94.5001 168.66L95.5001 166.928L97.5001 163.464Z" fill="#D1D5DC"/>
<path fill-rule="evenodd" clip-rule="evenodd" d="M285.5 107.5V111.337C285.5 111.614 285.615 111.879 285.818 112.068L291.322 117.205C291.74 117.595 292.398 117.556 292.768 117.12L296.305 112.94C296.65 112.532 296.613 111.925 296.222 111.561L291.059 106.767C290.874 106.595 290.631 106.5 290.379 106.5H286.5C285.948 106.5 285.5 106.948 285.5 107.5ZM288.136 110.454C288.864 110.454 289.454 109.864 289.454 109.136C289.454 108.408 288.864 107.818 288.136 107.818C287.408 107.818 286.818 108.408 286.818 109.136C286.818 109.864 287.408 110.454 288.136 110.454Z" fill="#D9E0E7"/>
<path d="M294 107.5L298.299 111.369C298.692 111.723 298.741 112.323 298.411 112.737L295 117" stroke="#D9E0E7" stroke-linecap="round" stroke-linejoin="round"/>
<defs>
<clipPath id="clip0_3133_103444">
<rect width="14" height="14" fill="white" transform="translate(82 134)"/>
</clipPath>
</defs>
</svg>
